<svg width="800" height="800" viewBox="0 0 800 800" fill="none" xmlns="http://www.w3.org/2000/svg">
<path d="M21.3704 335.887C21.3703 348.375 24.3407 360.392 30.0469 371.255C11.2438 385.598 2.84289e-05 407.877 2.63149e-05 432.058C2.26217e-05 474.303 34.3688 508.67 76.6125 508.67L284.053 508.67C266.188 554.358 256.452 609.808 256.452 667.138C256.452 703.491 286.027 733.066 322.38 733.066C358.733 733.066 388.306 703.491 388.306 667.138C388.306 537.198 478.95 439.967 613.861 425.194C614.786 425.092 615.672 424.886 616.517 424.6C625.388 432.611 637.133 437.5 650 437.5L750 437.5C777.57 437.5 800 415.07 800 387.5L800 150C800 122.43 777.57 100 750 100L650 100C634.745 100 621.073 106.875 611.894 117.68C579.905 113.013 559.169 102.783 539.131 92.8641C513.375 80.1173 486.741 66.9344 439.919 66.9344L140.725 66.9344C98.4797 66.9344 64.1126 101.303 64.1126 143.547C64.1126 156.033 67.0828 168.052 72.7891 178.914C53.986 193.258 42.7422 215.536 42.7422 239.717C42.7422 252.203 45.7125 264.222 51.4188 275.084C32.6156 289.428 21.3704 311.708 21.3704 335.887ZM72.561 291.052L93.75 291.052C100.653 291.052 106.25 285.455 106.25 278.552C106.25 271.648 100.653 266.052 93.75 266.052L75.0657 266.052C70.2828 258.083 67.7422 249.103 67.7422 239.717C67.7422 220.802 77.9922 203.63 94.5594 194.531L117.291 194.531C124.194 194.531 129.791 188.934 129.791 182.031C129.791 175.128 124.194 169.531 117.291 169.531L96.2266 169.531C91.5813 161.65 89.1126 152.797 89.1126 143.548C89.1126 115.089 112.266 91.9359 140.725 91.9359L439.919 91.936C480.892 91.936 502.742 102.75 528.041 115.272C547.35 124.83 569.033 135.524 600.791 141.2C600.281 144.059 600 146.997 600 150L600 339.063C600 345.966 605.597 351.563 612.5 351.563C619.403 351.563 625 345.966 625 339.063L625 150C625 136.216 636.216 125 650 125L750 125C763.784 125 775 136.216 775 150L775 387.5C775 401.284 763.784 412.5 750 412.5L650 412.5C636.216 412.5 625 401.284 625 387.5C625 380.597 619.403 375 612.5 375C605.597 375 600 380.597 600 387.5C600 392.352 600.708 397.039 602.003 401.48C532.038 411.02 472.602 441.05 429.684 488.688C386.88 536.2 363.308 599.573 363.308 667.138C363.308 689.705 344.948 708.066 322.381 708.066C299.814 708.066 281.453 689.706 281.453 667.138C281.453 605.723 293.116 546.881 314.294 501.45C317.211 495.194 314.503 487.756 308.245 484.839C306.208 483.889 304.047 483.545 301.956 483.716C301.642 483.692 301.33 483.667 301.011 483.667L76.6156 483.667C48.1563 483.667 25.0032 460.514 25.0032 432.055C25.0032 413.62 34.7344 396.837 50.5641 387.572L73.9625 387.572C80.8657 387.572 86.4625 381.975 86.4625 375.072C86.4625 368.169 80.8657 362.572 73.9625 362.572L53.9079 362.572C48.9875 354.517 46.3734 345.409 46.3734 335.886C46.3703 317.211 56.3641 300.238 72.561 291.052Z" fill="black"/>
<path d="M140.025 291.052L153.345 291.052C160.248 291.052 165.845 285.455 165.845 278.552C165.845 271.649 160.248 266.052 153.345 266.052L140.025 266.052C133.122 266.052 127.525 271.649 127.525 278.552C127.525 285.455 133.122 291.052 140.025 291.052Z" fill="black"/>
<path d="M117.291 387.573L130.611 387.573C137.514 387.573 143.111 381.977 143.111 375.073C143.111 368.17 137.514 362.573 130.611 362.573L117.291 362.573C110.388 362.573 104.791 368.17 104.791 375.073C104.791 381.977 110.388 387.573 117.291 387.573Z" fill="black"/>
<path d="M162.761 194.531L176.081 194.531C182.984 194.531 188.581 188.934 188.581 182.031C188.581 175.128 182.984 169.531 176.081 169.531L162.761 169.531C155.858 169.531 150.261 175.128 150.261 182.031C150.261 188.934 155.856 194.531 162.761 194.531Z" fill="black"/>
<path d="M675 387.5C688.784 387.5 700 376.284 700 362.5C700 348.716 688.784 337.5 675 337.5C661.216 337.5 650 348.716 650 362.5C650 376.284 661.216 387.5 675 387.5Z" fill="black"/>
</svg>
